<?xml version="1.0" encoding="iso-8859-1"?>
<!-- Generator: Adobe Illustrator 19.0.0, SVG Export Plug-In . SVG Version: 6.00 Build 0)  -->
<svg version="1.1" id="Capa_1" xmlns="http://www.w3.org/2000/svg" xmlns:xlink="http://www.w3.org/1999/xlink" x="0px" y="0px"
	 viewBox="0 0 496.002 496.002" style="enable-background:new 0 0 496.002 496.002;" xml:space="preserve">

<path style="fill:#c5212e;" d="M247.889,0.002c-3.181,0.045-6.033,1.97-7.264,4.904l-104,248
	c-1.713,4.073,0.199,8.763,4.272,10.476c1.905,0.801,4.047,0.834,5.976,0.092l101.232-38.944l109.208,39
	c0.861,0.313,1.771,0.473,2.688,0.472c4.418-0.003,7.998-3.587,7.995-8.005c-0.001-1.132-0.242-2.251-0.707-3.283l-112-248
	C253.999,1.794,251.08-0.064,247.889,0.002L247.889,0.002z M250.689,208.474c-0.862-0.31-1.772-0.47-2.688-0.472
	c-0.981,0-1.955,0.179-2.872,0.528l-86.504,33.28l89.648-213.768l96.688,214.096L250.689,208.474z"/>

<path style="fill:#c5212e;" d="M488.001,240.002h-16.296c-3.074-85.423-54.434-161.673-132.44-196.624
	c-4.034-1.803-8.765,0.006-10.568,4.04s0.006,8.765,4.04,10.568c72.253,32.368,119.906,102.903,122.968,182.016h-31.704
	c-4.418,0.006-7.995,3.593-7.989,8.011c0.006,4.41,3.579,7.983,7.989,7.989h31.8c-4.304,108.514-91.286,195.496-199.8,199.8v-31.8
	c0-4.418-3.582-8-8-8s-8,3.582-8,8v31.8c-108.514-4.304-195.496-91.286-199.8-199.8h31.8c4.418,0,8-3.582,8-8s-3.582-8-8-8H40.297
	c3.062-79.113,50.715-149.648,122.968-182.016c4.034-1.803,5.843-6.534,4.04-10.568c-1.803-4.034-6.534-5.843-10.568-4.04l0,0
	C78.73,78.328,27.371,154.579,24.297,240.002H8.001c-4.418,0-8,3.582-8,8c0,4.418,3.582,8,8,8h16.2
	c4.328,117.344,98.456,211.472,215.8,215.8v16.2c0,4.418,3.582,8,8,8s8-3.582,8-8v-16.2c117.344-4.328,211.472-98.456,215.8-215.8
	h16.2c4.418,0,8-3.582,8-8S492.419,240.002,488.001,240.002z"/>
<g>
</g>
<g>
</g>
<g>
</g>
<g>
</g>
<g>
</g>
<g>
</g>
<g>
</g>
<g>
</g>
<g>
</g>
<g>
</g>
<g>
</g>
<g>
</g>
<g>
</g>
<g>
</g>
<g>
</g>
</svg>
